<?xml version="1.0" encoding="utf-8"?>
<!-- Generator: Adobe Illustrator 17.0.2, SVG Export Plug-In . SVG Version: 6.00 Build 0)  -->
<!DOCTYPE svg PUBLIC "-//W3C//DTD SVG 1.1//EN" "http://www.w3.org/Graphics/SVG/1.1/DTD/svg11.dtd">
<svg version="1.1" id="Layer_1" xmlns="http://www.w3.org/2000/svg" xmlns:xlink="http://www.w3.org/1999/xlink" x="0px" y="0px"
	 width="32px" height="32px" viewBox="0 0 32 32" enable-background="new 0 0 32 32" xml:space="preserve">
<path fill="#787878" d="M15.856,26.689L3.341,14.174c-0.248-0.245-0.401-0.586-0.401-0.963s0.154-0.717,0.401-0.963L4.5,11.089
	l11.356,11.356c0.249,0.248,0.592,0.401,0.972,0.401s0.723-0.154,0.972-0.401l11.356-11.356l1.159,1.159
	c0.248,0.245,0.401,0.586,0.401,0.963s-0.154,0.717-0.401,0.963L17.8,26.689c-0.249,0.248-0.593,0.401-0.972,0.401
	S16.105,26.936,15.856,26.689C15.856,26.689,15.856,26.689,15.856,26.689z"/>
</svg>
