<svg id="Capa_1" data-name="Capa 1" xmlns="http://www.w3.org/2000/svg" xmlns:xlink="http://www.w3.org/1999/xlink" viewBox="0 0 56 20"><defs><style>.cls-1{fill:#00afd8}.cls-2{fill:#006e90}.cls-3{fill:url(#linear-gradient)}.cls-4{fill:url(#linear-gradient-2)}.cls-5{fill:url(#linear-gradient-3)}</style><linearGradient id="linear-gradient" y1="23.97" x2="11.46" y2="23.97" gradientTransform="matrix(1 0 0 -1 0 25)" gradientUnits="userSpaceOnUse"><stop offset="0" stop-color="#e70000" stop-opacity="0"/><stop offset=".33" stop-color="#de0000" stop-opacity=".45"/><stop offset=".74" stop-color="#cd0000"/><stop offset=".79" stop-color="#c20000"/><stop offset=".89" stop-color="#a60000"/><stop offset="1" stop-color="maroon"/></linearGradient><linearGradient id="linear-gradient-2" y1="19.99" x2="11.46" y2="19.99" xlink:href="#linear-gradient"/><linearGradient id="linear-gradient-3" y1="15.65" x2="11.46" y2="15.65" xlink:href="#linear-gradient"/></defs><title>Artboard 15 copy 2</title><path class="cls-1" d="M2.55 19.54v-5.93H.81v-1.83H6.4v1.83H4.66v5.93zm4.88 0v-7.76h2.21a9.22 9.22 0 0 1 1.81.12 2.31 2.31 0 0 1 .88.4 2.09 2.09 0 0 1 .64.81 2.58 2.58 0 0 1 .23 1.09 2.31 2.31 0 0 1-.44 1.47 2.16 2.16 0 0 1-1.29.75l2.11 3.13H11.2l-1.78-3v3zm2-4.09h.39a1.7 1.7 0 0 0 1-.23.85.85 0 0 0 .32-.73 1 1 0 0 0-.29-.83 1.55 1.55 0 0 0-1-.25h-.43v2z"/><path class="cls-1" d="M13.48 19.54l2.68-7.76h2.65l2.68 7.76h-2.1L19 18.15h-3l-.4 1.39zm3-2.9h2.1l-.79-2.56q0-.12-.1-.38l-.2-.7-.14.55q-.07.26-.14.5zm5.75 2.9v-7.76h2l2.93 4a5.63 5.63 0 0 1 .28.49q.19.37.43.88-.06-.48-.09-.86t0-.67v-3.84h2v7.76h-2l-2.93-4a4.46 4.46 0 0 1-.28-.49q-.19-.37-.42-.87.06.49.09.86t0 .67v3.83h-2zm9.6-2.54a3.83 3.83 0 0 0 .93.8 1.81 1.81 0 0 0 .91.27 1.05 1.05 0 0 0 .7-.23.72.72 0 0 0 .27-.58.76.76 0 0 0-.24-.6 3 3 0 0 0-1.07-.43 3.48 3.48 0 0 1-1.61-.8 1.87 1.87 0 0 1-.47-1.35A2.38 2.38 0 0 1 32 12.3a2.7 2.7 0 0 1 1.93-.7 4.21 4.21 0 0 1 1.22.17 3.93 3.93 0 0 1 1.09.52l-.66 1.52a2.78 2.78 0 0 0-.74-.46 2 2 0 0 0-.75-.16 1 1 0 0 0-.62.18.57.57 0 0 0-.24.47.58.58 0 0 0 .21.47 2.26 2.26 0 0 0 .81.33h.1a4 4 0 0 1 1.7.77 1.9 1.9 0 0 1 .42.69 2.62 2.62 0 0 1 .14.89 2.58 2.58 0 0 1-.81 2 3.06 3.06 0 0 1-2.16.75 3.82 3.82 0 0 1-1.48-.28 4.18 4.18 0 0 1-1.28-.86zm5.96 2.54v-7.76h4.75v1.7h-2.69v1.35h2.54v1.66h-2.54v3h-2.06zm5.9 0v-7.76h4.75v1.7h-2.69v1.35h2.54v1.66h-2.54v1.31h2.69v1.74h-4.75zm6.16 0v-7.76h2.21a9.22 9.22 0 0 1 1.81.12 2.31 2.31 0 0 1 .88.4 2.09 2.09 0 0 1 .64.81 2.59 2.59 0 0 1 .23 1.09 2.31 2.31 0 0 1-.44 1.47 2.16 2.16 0 0 1-1.29.75L56 19.54h-2.39l-1.78-3v3zm2-4.09h.39a1.7 1.7 0 0 0 1-.23.85.85 0 0 0 .32-.73 1 1 0 0 0-.29-.83 1.55 1.55 0 0 0-1-.25h-.42z"/><path class="cls-2" d="M13.72 10.37V0h2.83A17.77 17.77 0 0 1 19 .14a3.71 3.71 0 0 1 1.2.39 2.2 2.2 0 0 1 .87.85 2.47 2.47 0 0 1 .3 1.23A2.07 2.07 0 0 1 20.92 4a2.83 2.83 0 0 1-1.43.79 2.48 2.48 0 0 1 1.72.77 2.64 2.64 0 0 1 .62 1.84 2.94 2.94 0 0 1-.35 1.46 2.42 2.42 0 0 1-1 1 4.11 4.11 0 0 1-1.31.4 18.74 18.74 0 0 1-2.54.12h-2.91zm2.61-6.21h.57a3.09 3.09 0 0 0 1.43-.23.85.85 0 0 0 .39-.8.91.91 0 0 0-.36-.82 2.88 2.88 0 0 0-1.42-.24h-.61v2.09zm0 4.1h1A2.92 2.92 0 0 0 18.74 8a.9.9 0 0 0 .42-.84 1 1 0 0 0-.38-.91A2.72 2.72 0 0 0 17.37 6h-1v2.26zm5.99 2.11L25.89 0h3.53L33 10.37h-2.81l-.52-1.85h-4l-.54 1.85zm4-3.87h2.81L28 3.09q0-.16-.13-.5l-.22-.89-.18.73q-.09.35-.18.66zM34 10.37V0h2.72l3.91 5.32A7.52 7.52 0 0 1 41 6q.26.49.57 1.17-.09-.64-.12-1.14t0-.89V0h2.65v10.37h-2.71L37.49 5a5.93 5.93 0 0 1-.38-.65q-.26-.49-.56-1.16.09.65.12 1.15t0 .89v5.11zm12.32 0V0h2.79v4.7L52.38 0h3.29l-3.82 5L56 10.37h-3.52l-3.37-4.64v4.64h-2.79z"/><path class="cls-3" d="M0 0h11.46v2.05H0z"/><path class="cls-4" d="M0 3.98h11.46v2.05H0z"/><path class="cls-5" d="M0 8.32h11.46v2.05H0z"/></svg>