<svg id="Capa_1" data-name="Capa 1" xmlns="http://www.w3.org/2000/svg" viewBox="0 0 57 35"><defs><style>.cls-1{fill:#00b5e5}.cls-2{fill:#fff}</style></defs><title>Artboard 15</title><path class="cls-1" d="M53.35 0H3.65A3.31 3.31 0 0 0 .34 3.31v28.38A3.31 3.31 0 0 0 3.65 35h49.7a3.31 3.31 0 0 0 3.31-3.31V3.31A3.31 3.31 0 0 0 53.35 0z"/><path class="cls-2" d="M6.78 25.85v-5H5.31v-1.56H10v1.55H8.57v5zm4.14 0v-6.56h1.87a7.81 7.81 0 0 1 1.53.1 2 2 0 0 1 .75.34 1.77 1.77 0 0 1 .54.69 2.19 2.19 0 0 1 .19.92 2 2 0 0 1-.37 1.24 1.83 1.83 0 0 1-1.09.63l1.79 2.65h-2l-1.53-2.58v2.57zm1.68-3.46h.33a1.44 1.44 0 0 0 .85-.2.72.72 0 0 0 .27-.62.87.87 0 0 0-.25-.7 1.31 1.31 0 0 0-.84-.21h-.36v1.73z"/><path class="cls-2" d="M16 25.85l2.27-6.57h2.24l2.27 6.57H21l-.33-1.18h-2.51l-.34 1.18zm2.51-2.45h1.78l-.67-2.17q0-.1-.09-.32l-.14-.57-.11.46-.11.42zm4.93 2.45v-6.56h1.73l2.48 3.38a4.76 4.76 0 0 1 .24.41q.16.31.36.74-.05-.41-.08-.73t0-.57v-3.23h1.72v6.57h-1.75l-2.48-3.39a3.78 3.78 0 0 1-.24-.41q-.16-.31-.36-.73.05.41.08.73t0 .57v3.24h-1.7zm8.12-2.12a3.24 3.24 0 0 0 .79.68 1.54 1.54 0 0 0 .77.22.89.89 0 0 0 .59-.19.61.61 0 0 0 .23-.49.64.64 0 0 0-.2-.5 2.53 2.53 0 0 0-.9-.37 3 3 0 0 1-1.36-.68 1.59 1.59 0 0 1-.4-1.14 2 2 0 0 1 .63-1.54 2.28 2.28 0 0 1 1.63-.59 3.57 3.57 0 0 1 1 .15 3.33 3.33 0 0 1 .92.44L34.73 21a2.35 2.35 0 0 0-.63-.39 1.65 1.65 0 0 0-.63-.13.84.84 0 0 0-.52.15.48.48 0 0 0-.2.4.49.49 0 0 0 .18.39 1.92 1.92 0 0 0 .68.28h.08a3.35 3.35 0 0 1 1.44.65 1.61 1.61 0 0 1 .35.58 2.22 2.22 0 0 1 .12.75 2.18 2.18 0 0 1-.69 1.68 2.59 2.59 0 0 1-1.83.63 3.24 3.24 0 0 1-1.25-.23 3.54 3.54 0 0 1-1.08-.73zm5.05 2.12v-6.56h4v1.44h-2.26v1.14h2.15v1.41h-2.15v2.58h-1.74zm4.99 0v-6.56h4v1.44h-2.25v1.14h2.15v1.41h-2.15v1.11h2.28v1.47h-4zm5.21 0v-6.56h1.87a7.81 7.81 0 0 1 1.53.1 2 2 0 0 1 .75.34 1.77 1.77 0 0 1 .54.69 2.19 2.19 0 0 1 .19.92 2 2 0 0 1-.37 1.24 1.83 1.83 0 0 1-1.09.63L52 25.85h-2l-1.51-2.57v2.57zm1.68-3.46h.33a1.43 1.43 0 0 0 .85-.2.72.72 0 0 0 .27-.62.87.87 0 0 0-.25-.7 1.31 1.31 0 0 0-.84-.21h-.36zM16.24 18.1V9.34h2.4a15 15 0 0 1 2.07.1 3.14 3.14 0 0 1 1 .33 1.86 1.86 0 0 1 .74.72 2.09 2.09 0 0 1 .25 1 1.75 1.75 0 0 1-.38 1.19 2.39 2.39 0 0 1-1.21.67 2.09 2.09 0 0 1 1.46.65 2.24 2.24 0 0 1 .53 1.56 2.49 2.49 0 0 1-.3 1.23 2 2 0 0 1-.85.83 3.48 3.48 0 0 1-1.11.34 15.85 15.85 0 0 1-2.15.1h-2.45zm2.21-5.26h.48a2.62 2.62 0 0 0 1.21-.19.72.72 0 0 0 .33-.67.77.77 0 0 0-.31-.7 2.43 2.43 0 0 0-1.2-.2h-.51v1.76zm0 3.47h.84a2.47 2.47 0 0 0 1.2-.21.76.76 0 0 0 .35-.71.86.86 0 0 0-.32-.77 2.3 2.3 0 0 0-1.2-.22h-.87v1.91zm5.07 1.79l3-8.76h3l3 8.76h-2.34l-.44-1.57h-3.4l-.45 1.57zm3.34-3.27h2.37l-.89-2.89q0-.13-.11-.42l-.23-.76-.15.62q-.07.29-.15.56zm6.53 3.27V9.34h2.3l3.31 4.5a6.36 6.36 0 0 1 .31.55q.22.42.48 1-.07-.54-.1-1t0-.75v-4.3h2.29v8.76h-2.32l-3.31-4.52A5 5 0 0 1 36 13q-.22-.42-.48-1 .07.55.1 1t0 .75v4.35zm10.43 0V9.34h2.36v4l2.77-4h2.78l-3.23 4.27L52 18.1h-3l-2.85-3.93v3.93h-2.33zM4.63 9.32h9.7v1.74h-9.7zm0 3.37h9.7v1.74h-9.7zm0 3.67h9.7v1.74h-9.7z"/></svg>