<svg id="Capa_1" data-name="Capa 1" xmlns="http://www.w3.org/2000/svg" xmlns:xlink="http://www.w3.org/1999/xlink" viewBox="0 0 68 24"><defs><style>.cls-1{fill:#00afd8}.cls-2{fill:#006e90}.cls-3{fill:url(#linear-gradient)}.cls-4{fill:url(#linear-gradient-2)}.cls-5{fill:url(#linear-gradient-3)}</style><linearGradient id="linear-gradient" x1="-.07" y1="27.75" x2="13.86" y2="27.75" gradientTransform="matrix(1 0 0 -1 0 29)" gradientUnits="userSpaceOnUse"><stop offset="0" stop-color="#e70000" stop-opacity="0"/><stop offset=".33" stop-color="#de0000" stop-opacity=".45"/><stop offset=".74" stop-color="#cd0000"/><stop offset=".79" stop-color="#c20000"/><stop offset=".89" stop-color="#a60000"/><stop offset="1" stop-color="maroon"/></linearGradient><linearGradient id="linear-gradient-2" x1="-.07" y1="22.92" x2="13.86" y2="22.92" xlink:href="#linear-gradient"/><linearGradient id="linear-gradient-3" x1="-.07" y1="17.64" x2="13.86" y2="17.64" xlink:href="#linear-gradient"/></defs><title>Artboard 16</title><path class="cls-1" d="M3 23.75v-7.2H.92v-2.23h6.8v2.23H5.6v7.2zm6 0v-9.43h2.69a11.21 11.21 0 0 1 2.2.14 2.81 2.81 0 0 1 1.07.49 2.55 2.55 0 0 1 .78 1 3.14 3.14 0 0 1 .26 1.3 2.8 2.8 0 0 1-.55 1.75 2.62 2.62 0 0 1-1.57.91l2.57 3.8h-2.91l-2.16-3.69v3.69zm2.41-5h.48a2.06 2.06 0 0 0 1.21-.28 1 1 0 0 0 .38-.89 1.25 1.25 0 0 0-.36-1 1.88 1.88 0 0 0-1.2-.3h-.52v2.48z"/><path class="cls-1" d="M16.32 23.75l3.25-9.43h3.22l3.26 9.43H23.5l-.5-1.69h-3.63l-.49 1.69zm3.6-3.52h2.56l-1-3.11q0-.14-.12-.46l-.2-.81-.16.66q-.08.32-.16.61zM27 23.75v-9.43h2.48L33 19.17a6.84 6.84 0 0 1 .34.6q.24.45.52 1.07-.08-.59-.11-1t0-.81v-4.71h2.47v9.43h-2.51l-3.56-4.87a5.42 5.42 0 0 1-.34-.6q-.24-.45-.51-1.05.08.59.11 1.05t0 .81v4.66H27zm11.62-3.05a4.66 4.66 0 0 0 1.13 1 2.2 2.2 0 0 0 1.11.32 1.28 1.28 0 0 0 .85-.28A.88.88 0 0 0 42 21a.92.92 0 0 0-.29-.72 3.63 3.63 0 0 0-1.3-.53 4.23 4.23 0 0 1-2-1 2.28 2.28 0 0 1-.57-1.64 2.9 2.9 0 0 1 .91-2.21 3.28 3.28 0 0 1 2.35-.85 5.12 5.12 0 0 1 1.48.21 4.78 4.78 0 0 1 1.32.63l-.81 1.85a3.38 3.38 0 0 0-.9-.56 2.38 2.38 0 0 0-.91-.19 1.21 1.21 0 0 0-.75.22.69.69 0 0 0-.29.57.7.7 0 0 0 .25.57 2.75 2.75 0 0 0 1 .41h.12a4.82 4.82 0 0 1 2.07.93 2.31 2.31 0 0 1 .51.83 3.19 3.19 0 0 1 .17 1.08 3.13 3.13 0 0 1-1 2.41 3.72 3.72 0 0 1-2.63.91 4.65 4.65 0 0 1-1.73-.25 5.08 5.08 0 0 1-1.56-1.05zm7.24 3.05v-9.43h5.78v2.07h-3.27V18h3.09v2h-3.09v3.7h-2.51zm7.14 0v-9.43h5.78v2.07h-3.23V18h3.09v2h-3.09v1.59h3.27v2.11H53zm7.52 0v-9.43h2.69a11.21 11.21 0 0 1 2.2.14 2.81 2.81 0 0 1 1.07.49 2.54 2.54 0 0 1 .78 1 3.14 3.14 0 0 1 .27 1.32A2.8 2.8 0 0 1 67 19a2.62 2.62 0 0 1-1.57.91L68 23.75h-2.91l-2.16-3.69v3.69zm2.41-5h.48a2.06 2.06 0 0 0 1.21-.28 1 1 0 0 0 .38-.87 1.25 1.25 0 0 0-.36-1 1.88 1.88 0 0 0-1.2-.3h-.52z"/><path class="cls-2" d="M16.61 12.61V0h3.44a21.59 21.59 0 0 1 3 .14 4.51 4.51 0 0 1 1.46.47 2.68 2.68 0 0 1 1.06 1 3 3 0 0 1 .37 1.5 2.52 2.52 0 0 1-.55 1.71 3.44 3.44 0 0 1-1.74 1 3 3 0 0 1 2.1.94A3.21 3.21 0 0 1 26.48 9a3.58 3.58 0 0 1-.43 1.77A2.94 2.94 0 0 1 24.84 12a5 5 0 0 1-1.59.49 22.77 22.77 0 0 1-3.09.15h-3.55zm3.18-7.55h.69a3.76 3.76 0 0 0 1.74-.28 1 1 0 0 0 .47-1 1.1 1.1 0 0 0-.44-1 3.49 3.49 0 0 0-1.72-.29h-.74v2.57zm0 5H21a3.55 3.55 0 0 0 1.73-.3 1.09 1.09 0 0 0 .51-1 1.23 1.23 0 0 0-.46-1.1A3.3 3.3 0 0 0 21 7.3h-1.21V10zm7.27 2.55L31.4 0h4.29L40 12.61h-3.37L36 10.36h-4.87l-.65 2.25zm4.8-4.7h3.41L34 3.76q-.06-.19-.16-.61l-.27-1.08-.22.93q-.11.42-.22.81zm9.38 4.7V0h3.31l4.75 6.5a9.14 9.14 0 0 1 .45.79q.31.6.69 1.42-.1-.78-.15-1.39t0-1.08V0h3.29v12.61h-3.33l-4.75-6.5a7.21 7.21 0 0 1-.5-.79q-.31-.6-.68-1.4.1.79.15 1.4t0 1.08v6.21zm14.99 0V0h3.39v5.74L63.6 0h4l-4.65 6.16L68 12.61h-4.28L59.63 7v5.64h-3.4z"/><path class="cls-3" d="M-.07 0h13.93v2.49H-.07z"/><path class="cls-4" d="M-.07 4.84h13.93v2.49H-.07z"/><path class="cls-5" d="M-.07 10.12h13.93v2.49H-.07z"/></svg>