<?xml version="1.0" encoding="utf-8"?>
<!-- Generator: Adobe Illustrator 21.1.0, SVG Export Plug-In . SVG Version: 6.00 Build 0)  -->
<svg version="1.1" id="Capa_1" xmlns="http://www.w3.org/2000/svg" xmlns:xlink="http://www.w3.org/1999/xlink" x="0px" y="0px"
	 viewBox="0 0 68 24" style="enable-background:new 0 0 68 24;" xml:space="preserve">
<style type="text/css">
	.st0{fill:#00AFD8;}
	.st1{fill:#006E90;}
</style>
<title>Artboard 16</title>
<g>
	<path class="st0" d="M2.5,23.8v-7.2H0.5v-2.2h6.8v2.2H5.1v7.2H2.5z M8.5,23.8v-9.4h2.7c0.7,0,1.5,0,2.2,0.1
		c0.4,0.1,0.8,0.3,1.1,0.5c0.3,0.3,0.6,0.6,0.8,1c0.2,0.4,0.3,0.9,0.3,1.3c0,0.6-0.2,1.2-0.6,1.8c-0.4,0.5-1,0.8-1.6,0.9l2.6,3.8
		h-2.9L10.9,20v3.7L8.5,23.8z M10.9,18.8h0.5c0.4,0,0.8-0.1,1.2-0.3c0.3-0.2,0.4-0.5,0.4-0.9c0-0.4-0.1-0.7-0.4-1
		c-0.4-0.2-0.8-0.3-1.2-0.3h-0.5L10.9,18.8L10.9,18.8z"/>
	<path class="st0" d="M15.9,23.8l3.3-9.4h3.2l3.3,9.4H23l-0.5-1.7h-3.6l-0.5,1.7H15.9z M19.5,20.2H22l-1-3.1c0-0.1,0-0.2-0.1-0.5
		l-0.2-0.8l-0.2,0.7c-0.1,0.2-0.1,0.4-0.2,0.6L19.5,20.2z M26.5,23.8v-9.4H29l3.5,4.9c0.1,0.2,0.2,0.4,0.3,0.6
		c0.2,0.3,0.3,0.7,0.5,1.1c-0.1-0.4-0.1-0.7-0.1-1s0-0.5,0-0.8v-4.7h2.5v9.4h-2.5l-3.6-4.9c-0.1-0.2-0.2-0.4-0.3-0.6
		c-0.2-0.3-0.3-0.7-0.5-1c0.1,0.4,0.1,0.7,0.1,1c0,0.3,0,0.6,0,0.8v4.7H26.5z M38.2,20.7c0.3,0.4,0.7,0.7,1.1,1
		c0.3,0.2,0.7,0.3,1.1,0.3c0.3,0,0.6-0.1,0.8-0.3c0.2-0.2,0.3-0.5,0.3-0.7c0-0.3-0.1-0.5-0.3-0.7c-0.4-0.3-0.8-0.4-1.3-0.5
		c-0.7-0.1-1.4-0.5-2-1c-0.4-0.5-0.6-1-0.6-1.6c0-0.8,0.3-1.6,0.9-2.2c0.6-0.6,1.5-0.9,2.3-0.9c0.5,0,1,0.1,1.5,0.2
		c0.5,0.1,0.9,0.4,1.3,0.6l-0.8,1.8c-0.3-0.2-0.6-0.4-0.9-0.6c-0.3-0.1-0.6-0.2-0.9-0.2c-0.3,0-0.5,0.1-0.8,0.2
		c-0.2,0.1-0.3,0.3-0.3,0.6c0,0.2,0.1,0.4,0.2,0.6c0.3,0.2,0.6,0.3,1,0.4h0.1c0.8,0.1,1.5,0.5,2.1,0.9c0.2,0.2,0.4,0.5,0.5,0.8
		c0.1,0.3,0.2,0.7,0.2,1.1c0,0.9-0.3,1.8-1,2.4c-0.7,0.6-1.7,1-2.6,0.9c-0.6,0-1.2-0.1-1.7-0.2c-0.6-0.2-1.1-0.6-1.6-1L38.2,20.7z
		 M45.4,23.8v-9.4h5.8v2.1h-3.3V18H51v2h-3.1v3.7L45.4,23.8L45.4,23.8z M52.5,23.8v-9.4h5.8v2.1h-3.2V18h3.1v2h-3.1v1.6h3.3v2.1
		L52.5,23.8L52.5,23.8z M60.1,23.8v-9.4h2.7c0.7,0,1.5,0,2.2,0.1c0.4,0.1,0.8,0.3,1.1,0.5c0.3,0.3,0.6,0.6,0.8,1
		c0.2,0.4,0.3,0.9,0.3,1.3c0,0.6-0.2,1.2-0.5,1.7c-0.4,0.5-1,0.8-1.6,0.9l2.6,3.8h-2.9l-2.2-3.7v3.7H60.1z M62.5,18.8H63
		c0.4,0,0.8-0.1,1.2-0.3c0.3-0.2,0.4-0.5,0.4-0.9c0-0.4-0.1-0.7-0.4-1c-0.4-0.2-0.8-0.3-1.2-0.3h-0.5L62.5,18.8z"/>
</g>
<path class="st1" d="M8.3,12.6V0h3.4c1,0,2,0,3,0.1c0.5,0.1,1,0.2,1.5,0.5c0.4,0.2,0.8,0.6,1.1,1c0.3,0.5,0.4,1,0.4,1.5
	c0,0.6-0.2,1.2-0.5,1.7c-0.5,0.5-1.1,0.8-1.7,1c0.8,0,1.6,0.4,2.1,0.9C18,7.4,18.2,8.2,18.2,9c0,0.6-0.1,1.2-0.4,1.8
	c-0.3,0.5-0.7,1-1.2,1.2c-0.5,0.3-1,0.4-1.6,0.5c-1,0.1-2.1,0.2-3.1,0.1L8.3,12.6L8.3,12.6z M11.5,5.1h0.7c0.6,0,1.2-0.1,1.7-0.3
	c0.3-0.2,0.5-0.6,0.5-1c0-0.4-0.1-0.8-0.4-1c-0.5-0.2-1.1-0.3-1.7-0.3h-0.7V5.1z M11.5,10.1h1.2c0.6,0,1.2-0.1,1.7-0.3
	c0.3-0.2,0.5-0.6,0.5-1c0-0.4-0.1-0.8-0.5-1.1c-0.5-0.3-1.2-0.4-1.8-0.4h-1.2V10.1L11.5,10.1z M18.8,12.6L23.1,0h4.3l4.3,12.6h-3.4
	l-0.6-2.2h-4.9l-0.6,2.2H18.8z M23.6,7.9H27l-1.3-4.1c0-0.1-0.1-0.3-0.2-0.6l-0.3-1.1L25,3c-0.1,0.3-0.1,0.5-0.2,0.8L23.6,7.9z
	 M32.9,12.6V0h3.3L41,6.5c0.2,0.3,0.3,0.5,0.5,0.8c0.2,0.4,0.4,0.9,0.7,1.4c-0.1-0.5-0.1-1-0.2-1.4c0-0.4,0-0.8,0-1.1V0h3.3v12.6
	h-3.3l-4.8-6.5c-0.2-0.3-0.4-0.5-0.5-0.8c-0.2-0.4-0.4-0.9-0.7-1.4c0.1,0.5,0.1,1,0.2,1.4c0,0.4,0,0.8,0,1.1v6.2H32.9z M47.9,12.6V0
	h3.4v5.7l4-5.7h4l-4.7,6.2l5.1,6.4h-4.3L51.3,7v5.6L47.9,12.6L47.9,12.6z"/>
</svg>
