<?xml version="1.0" encoding="utf-8"?>
<!-- Generator: Adobe Illustrator 17.0.2, SVG Export Plug-In . SVG Version: 6.00 Build 0)  -->
<!DOCTYPE svg PUBLIC "-//W3C//DTD SVG 1.1//EN" "http://www.w3.org/Graphics/SVG/1.1/DTD/svg11.dtd">
<svg version="1.1" id="Layer_1" xmlns="http://www.w3.org/2000/svg" xmlns:xlink="http://www.w3.org/1999/xlink" x="0px" y="0px"
	 width="32px" height="32px" viewBox="0 0 32 32" enable-background="new 0 0 32 32" xml:space="preserve">
<g>
	<defs>
		<rect id="SVGID_1_" x="0.053" y="0.053" width="31.893" height="31.893"/>
	</defs>
	<clipPath id="SVGID_2_">
		<use xlink:href="#SVGID_1_"  overflow="visible"/>
	</clipPath>
	<circle clip-path="url(#SVGID_2_)" fill="none" stroke="#B4B4B4" stroke-width="1.584" cx="16" cy="16" r="14.838"/>
	<g clip-path="url(#SVGID_2_)">
		<path fill="#B4B4B4" d="M14.137,19.204l-0.051-0.656c-0.101-1.336,0.328-2.722,1.513-4.134c0.958-1.134,1.613-2.042,1.613-3.024
			c0-1.059-0.681-1.765-2.092-1.79c-0.857,0-1.865,0.277-2.521,0.756l-0.731-2.218c0.882-0.58,2.344-1.034,3.933-1.034
			c3.125,0,4.562,1.815,4.562,3.832c0,1.84-1.083,3.075-2.167,4.311c-1.009,1.159-1.387,2.193-1.336,3.403v0.555H14.137z
			 M15.397,24.674c-1.109,0-1.891-0.857-1.891-1.966c0-1.16,0.807-1.967,1.916-1.967c1.135,0,1.916,0.807,1.916,1.967
			c0,1.108-0.757,1.966-1.916,1.966H15.397z"/>
	</g>
</g>
</svg>
