<?xml version="1.0" encoding="utf-8"?>

<!DOCTYPE svg PUBLIC "-//W3C//DTD SVG 1.1//EN" "http://www.w3.org/Graphics/SVG/1.1/DTD/svg11.dtd">
<svg version="1.1" id="Layer_1" xmlns="http://www.w3.org/2000/svg" xmlns:xlink="http://www.w3.org/1999/xlink" x="0px" y="0px"
     width="72px" height="72px" viewBox="0 0 72 72">
<linearGradient id="G1" gradientUnits="userSpaceOnUse" x1="3.2178" y1="34.8286" x2="32.731" y2="34.8286">
    <stop  offset="0.2061" style="stop-color:#074553"/>
    <stop  offset="0.3636" style="stop-color:#075972"/>
    <stop  offset="0.5333" style="stop-color:#007A94"/>
    <stop  offset="0.9273" style="stop-color:#62A6BD"/>
</linearGradient>
<path fill="url(#G1)" d="M3.218,31.128c0,3.593,2.167,7.642,6.47,11.944c4.301,4.303,8.345,6.473,11.939,6.471h0.001
    c4.002,0.002,7.587-2.357,11.103-6.176c-5.131,2.666-10.674,2.129-18.067-5.281c-7.332-7.35-7.875-12.87-5.234-17.972
    C5.457,23.661,3.217,27.136,3.218,31.128z"/>
<linearGradient id="G2" gradientUnits="userSpaceOnUse" x1="40.2334" y1="7.8066" x2="68.9146" y2="24.3657">
    <stop  offset="0.2364" style="stop-color:#203A17"/>
    <stop  offset="0.5515" style="stop-color:#3F6424"/>
    <stop  offset="0.8061" style="stop-color:#6C9C25"/>
    <stop  offset="1" style="stop-color:#9CBE5C"/>
</linearGradient>
<path fill="url(#G2)" d="M68.781,21.721c0-3.593-2.167-7.643-6.471-11.946c-4.303-4.301-8.346-6.472-11.938-6.471h-0.001
    c-4.003-0.001-7.589,2.358-11.104,6.176c5.131-2.665,10.674-2.129,18.065,5.28c7.334,7.354,7.876,12.874,5.236,17.978
    C66.544,29.188,68.781,25.714,68.781,21.721z"/>
<linearGradient id="G3" gradientUnits="userSpaceOnUse" x1="63.5303" y1="43.1436" x2="27.6725" y2="9.7057">
    <stop  offset="0" style="stop-color:#395B22"/>
    <stop  offset="0.2" style="stop-color:#3F6424"/>
    <stop  offset="0.497" style="stop-color:#6C9C25"/>
    <stop  offset="0.5435" style="stop-color:#79A534"/>
    <stop  offset="0.6326" style="stop-color:#8CB34A"/>
    <stop  offset="0.7178" style="stop-color:#98BB57"/>
    <stop  offset="0.7939" style="stop-color:#9CBE5C"/>
</linearGradient>
<path fill="url(#G3)" d="M62.9,9.09C47.656-6.153,36.847,0.544,28.287,9.106c-8.562,8.564-15.257,19.371-0.02,34.614
    l0.037,0.041c15.242,15.24,26.054,8.543,34.619-0.02C69.115,37.547,72,32.089,72,26.563C72,20.93,68.996,15.188,62.9,9.09z
     M60.473,34.885c-8.042,8.041-14.125,12.506-24.961,1.67c-10.875-10.875-6.41-16.958,1.633-25.004
    c4.407-4.409,8.446-8.062,13.229-8.061h0.001c3.595-0.001,7.432,2.092,11.731,6.394c4.304,4.304,6.433,8.178,6.433,11.772
    C68.538,26.435,64.883,30.474,60.473,34.885z"/>
<linearGradient id="G4" gradientUnits="userSpaceOnUse" x1="41.9932" y1="45.0107" x2="10.5669" y2="7.5584">
    <stop  offset="0.0545" style="stop-color:#074553"/>
    <stop  offset="0.1879" style="stop-color:#075972"/>
    <stop  offset="0.5818" style="stop-color:#007A94"/>
    <stop  offset="1" style="stop-color:#62A6BD"/>
</linearGradient>
<path fill="url(#G4)" d="M30.232,45.586c-2.758,2.256-5.527,3.77-8.603,3.77l0,0c-3.595,0.002-7.433-2.09-11.732-6.395
    c-4.305-4.301-6.434-8.175-6.434-11.769c0-4.777,3.653-8.818,8.064-13.229c8.043-8.043,14.126-12.505,24.962-1.67
    c9.571,9.572,7.258,15.435,1.08,22.186c2.646,2.297,5.009,3.627,7.194,4.187c8.025-8.39,13.574-18.923-1.031-33.536l-0.036-0.04
    C28.452-6.151,17.642,0.545,9.08,9.104C2.883,15.302-0.001,20.761,0,26.286C-0.001,31.92,3.002,37.66,9.101,43.76
    c11.053,11.053,19.771,10.566,26.994,6.201C34.22,48.865,32.265,47.42,30.232,45.586z"/>

<path fill="#231F20" d="M11.254,59.021c0,0,0,5.303,0,5.646c-0.353,0-9.061,0-9.415,0c0-0.346,0-5.646,0-5.646H0v12.86h1.841
    c0,0,0-5.297,0-5.645c0.354,0,9.063,0,9.414,0c0,0.346,0,5.645,0,5.645h1.841v-12.86H11.254z"/>
<path fill="#231F20" d="M15.548,59.021v1.782h1.663v-1.782H15.548z M15.548,62.227v9.658h1.663v-9.658H15.548z"/>
<path fill="#231F20" d="M23.938,62.105c-1.354,0-2.327,0.225-2.925,1.034c0-0.358,0-0.913,0-0.913h-1.571v9.657h1.661v-6.178
    c0-1.635,0.506-2.176,3.508-2.176h0.33c2.438,0,2.627,0.688,2.627,1.668v6.686h1.66v-7.002c0-1.039-0.435-2.774-3.359-2.774
    L23.938,62.105L23.938,62.105z"/>
<path fill="#231F20" d="M39.406,59.02c0,0,0,2.847,0,3.771c-0.422-0.474-1.146-0.685-2.283-0.685H35.16
    c-3.122,0-4.229,0.914-4.229,3.494v2.996c0,3.002,2.104,3.404,4.155,3.404h1.796c1.226,0,2.104-0.328,2.613-0.938
    c0,0.313,0,0.817,0,0.817h1.571V59.02H39.406L39.406,59.02z M32.595,68.584v-3.148c0-1.633,0.761-1.901,2.466-1.901h1.734
    c1.73,0,2.611,0.295,2.611,1.934v3.107c0,0.692-0.157,1.166-0.49,1.481c-0.37,0.355-0.975,0.527-1.854,0.527h-2.099
    C32.951,70.582,32.595,69.936,32.595,68.584z"/>
<path fill="#231F20" d="M46.432,62.123c-2.396,0-3.376,0.621-3.376,2.145v0.563h1.661v-0.457c0-0.455,0.135-0.83,1.746-0.83h1.889
    c2.023,0,2.654,0.191,2.654,1.369c0,0,0,1.131,0,1.557c-0.517-0.514-1.247-0.635-2.566-0.635h-2.063c-2.146,0-3.66,0.154-3.66,2.133
    v1.558c0,0.838,0.173,1.414,0.549,1.813C43.688,71.783,44.371,72,45.359,72h3.08c1.496,0,2.156-0.111,2.564-0.523
    c0,0.088,0,0.404,0,0.404h1.662v-6.941c0-2.604-2.072-2.823-4.197-2.823h-2.033L46.432,62.123L46.432,62.123z M44.373,69.557V68.27
    c0-0.498,0.137-0.68,0.343-0.795c0.276-0.149,0.751-0.217,1.597-0.217h1.978c2.158,0,2.716,0.205,2.716,0.996v1.391
    c0,0.402-0.172,0.607-0.607,0.744c-0.547,0.168-1.494,0.195-2.438,0.195h-1.71C44.461,70.582,44.373,70.211,44.373,69.557z"/>
<path fill="#231F20" d="M67.549,62.227c0,0-2.51,7.201-2.84,7.935c-0.275-0.752-2.311-7.935-2.311-7.935H60.28
    c0,0-2.034,7.183-2.313,7.935c-0.331-0.732-2.837-7.935-2.837-7.935h-1.776L57,71.885h2.031c0,0,2.004-7.065,2.307-7.885
    c0.305,0.816,2.309,7.885,2.309,7.885h2.033l3.646-9.658H67.549z"/>
<path fill="#231F20" d="M70.341,59.021v1.782H72v-1.782H70.341z M70.341,62.227v9.658H72v-9.658H70.341z"/>
</svg>
