<svg id="Capa_1" data-name="Capa 1" xmlns="http://www.w3.org/2000/svg" viewBox="0 0 30.53 32"><defs><style>.cls-1{fill:#6bb345;}</style></defs><title>institution-active</title><polygon class="cls-1" points="30.24 12.9 0.34 12.9 0.34 10.9 15.29 0 30.24 10.9 30.24 12.9"/><rect class="cls-1" x="1.69" y="11.7" width="27.2" height="2.3"/><rect class="cls-1" x="1.17" y="28.7" width="27.73" height="1.7"/><rect class="cls-1" x="-0.18" y="30.4" width="30.42" height="1.6"/><rect class="cls-1" x="2.94" y="14.4" width="4.41" height="1"/><rect class="cls-1" x="2.94" y="27.3" width="4.41" height="1"/><rect class="cls-1" x="3.41" y="14.9" width="3.47" height="12.47"/><rect class="cls-1" x="13.12" y="14.4" width="4.4" height="1"/><rect class="cls-1" x="13.12" y="27.3" width="4.4" height="1"/><rect class="cls-1" x="13.59" y="14.9" width="3.47" height="12.47"/><rect class="cls-1" x="23.3" y="14.4" width="4.4" height="1"/><rect class="cls-1" x="23.3" y="27.3" width="4.4" height="1"/><rect class="cls-1" x="23.77" y="14.9" width="3.47" height="12.47"/></svg>