<svg id="Layer_1" data-name="Layer 1" xmlns="http://www.w3.org/2000/svg" xmlns:xlink="http://www.w3.org/1999/xlink" viewBox="0 0 32 32"><defs><style>.cls-1,.cls-3{fill:none;}.cls-2{clip-path:url(#clip-path);}.cls-3{stroke:#c3c3c3;stroke-width:1.58px;}.cls-4{fill:#c3c3c3;}</style><clipPath id="clip-path"><rect class="cls-1" x="0.05" y="0.05" width="31.89" height="31.89"/></clipPath></defs><title>institution-disabled2</title><g class="cls-2"><circle class="cls-3" cx="16" cy="16" r="14.84"/></g><polygon class="cls-4" points="23.61 14.45 8.66 14.45 8.66 13.45 16.13 8 23.61 13.45 23.61 14.45"/><rect class="cls-4" x="9.33" y="13.85" width="13.6" height="1.15"/><rect class="cls-4" x="9.07" y="22.35" width="13.86" height="0.85"/><rect class="cls-4" x="8.39" y="23.2" width="15.21" height="0.8"/><rect class="cls-4" x="9.96" y="15.2" width="2.2" height="0.5"/><rect class="cls-4" x="9.96" y="21.65" width="2.2" height="0.5"/><rect class="cls-4" x="10.19" y="15.45" width="1.73" height="6.24"/><rect class="cls-4" x="15.05" y="15.2" width="2.2" height="0.5"/><rect class="cls-4" x="15.05" y="21.65" width="2.2" height="0.5"/><rect class="cls-4" x="15.28" y="15.45" width="1.73" height="6.24"/><rect class="cls-4" x="20.14" y="15.2" width="2.2" height="0.5"/><rect class="cls-4" x="20.14" y="21.65" width="2.2" height="0.5"/><rect class="cls-4" x="20.37" y="15.45" width="1.73" height="6.24"/></svg>