<?xml version="1.0" encoding="utf-8"?>
<!-- Generator: Adobe Illustrator 21.1.0, SVG Export Plug-In . SVG Version: 6.00 Build 0)  -->
<svg version="1.1" id="Layer_1" xmlns="http://www.w3.org/2000/svg" xmlns:xlink="http://www.w3.org/1999/xlink" x="0px" y="0px"
	 viewBox="0 0 1024 1024" style="enable-background:new 0 0 1024 1024;" xml:space="preserve">
<title></title>
<g id="icomoon-ignore">
</g>
<g>
	<path d="M512,29c266.8,0,483,216.2,483,483S778.8,995,512,995S29,778.8,29,512S245.2,29,512,29 M512,2
		c-68.8,0-135.6,13.5-198.5,40.1c-60.7,25.7-115.3,62.5-162.1,109.3c-46.8,46.8-83.6,101.4-109.3,162.1C15.5,376.4,2,443.2,2,512
		s13.5,135.6,40.1,198.5c25.7,60.7,62.5,115.3,109.3,162.1c46.8,46.8,101.4,83.6,162.1,109.3c62.9,26.6,129.7,40.1,198.5,40.1
		s135.6-13.5,198.5-40.1c60.7-25.7,115.3-62.5,162.1-109.3c46.8-46.8,83.6-101.4,109.3-162.1c26.6-62.9,40.1-129.7,40.1-198.5
		s-13.5-135.6-40.1-198.5c-25.7-60.7-62.5-115.3-109.3-162.1c-46.8-46.8-101.4-83.6-162.1-109.3C647.6,15.5,580.8,2,512,2L512,2z"/>
</g>
<path d="M520.9,488c50,13.5,104.2,33.3,104.2,96.9c0,45.8-34.4,70.8-78.1,79.2V712h-66.7v-47.9c-42.7-9.4-78.1-36.5-81.2-85.4h49
	c2.1,26,19.8,46.9,65.6,46.9c49,0,60.4-24,60.4-39.6c0-20.8-11.5-40.6-66.7-54.2c-62.5-14.6-104.2-40.6-104.2-91.7
	c0-42.7,34.4-70.8,77.1-80.2V312h66.7v49c46.9,11.5,70.8,45.8,71.9,84.4h-49c-1-28.1-16.7-46.9-56.2-46.9
	c-37.5,0-59.4,17.7-59.4,41.7C454.2,461,470.9,474.5,520.9,488z"/>
</svg>
