<?xml version="1.0" encoding="utf-8"?>
<!-- Generator: Adobe Illustrator 21.0.2, SVG Export Plug-In . SVG Version: 6.00 Build 0)  -->
<svg version="1.1" id="Layer_1" xmlns="http://www.w3.org/2000/svg" xmlns:xlink="http://www.w3.org/1999/xlink" x="0px" y="0px"
	 viewBox="0 0 34 38.6" style="enable-background:new 0 0 34 38.6;" xml:space="preserve">
<style type="text/css">
	.st0{fill:#989898;}
	.st1{fill:#F55314;}
	.st2{fill:#FFFFFF;}
</style>
<title>Artboard 1</title>
<path class="st0" d="M31.4,36H6.7V2.5h17.1v8.2h7.5L31.4,36z M31.2,8.8h-5.4V2.6L31.2,8.8z M26.6,0.6H4.8v37.3h28.5V8.2L26.6,0.6z"
	/>
<rect x="0.7" y="7.4" class="st1" width="19.4" height="9"/>
<path class="st2" d="M4.9,11.6h1c0.5,0,0.8-0.2,0.8-0.6s-0.3-0.6-0.8-0.6h-1V11.6z M3.9,14.4V9.5H6c0.4,0,0.9,0.1,1.2,0.4
	c0.3,0.3,0.5,0.6,0.5,1c0,0.4-0.2,0.8-0.5,1c-0.3,0.3-0.8,0.4-1.2,0.4H4.9v2H3.9z"/>
<path class="st2" d="M9.4,13.5h0.7c1.1,0,1.7-0.6,1.7-1.5s-0.6-1.5-1.7-1.5H9.4V13.5z M8.4,14.4V9.5h1.8c0.7,0,1.4,0.2,1.9,0.7
	c1,0.9,1,2.5,0.1,3.4c0,0,0,0-0.1,0.1c-0.5,0.5-1.2,0.7-1.9,0.7L8.4,14.4z"/>
<polygon class="st2" points="13.8,14.4 13.8,9.5 17.3,9.5 17.3,10.4 14.7,10.4 14.7,11.4 16.7,11.4 16.7,12.3 14.7,12.3 14.7,14.4 
	"/>
<rect x="10.1" y="20.6" class="st0" width="17.6" height="2"/>
<rect x="10.1" y="24.8" class="st0" width="17.6" height="2"/>
<rect x="10.1" y="29" class="st0" width="17.6" height="2"/>
</svg>
