<?xml version="1.0" encoding="utf-8"?>
<!-- Generator: Adobe Illustrator 21.0.0, SVG Export Plug-In . SVG Version: 6.00 Build 0)  -->
<svg version="1.1" id="Layer_1" xmlns="http://www.w3.org/2000/svg" xmlns:xlink="http://www.w3.org/1999/xlink" x="0px" y="0px"
	 viewBox="0 0 52 52" style="enable-background:new 0 0 52 52;" xml:space="preserve">
<style type="text/css">
	.st0{fill:#FFFFFF;}
	.st1{fill:#989898;}
	.st2{fill:#F55314;}
</style>
<title>view-details</title>
<path class="st0" d="M2.4,0C1.1,0,0,1,0,2.3c0,0,0,0,0,0c0,0,0,0.1,0,0.1v47.2C0,50.9,1,52,2.3,52c0,0,0,0,0,0h47.3
	c1.3,0,2.4-1,2.4-2.3c0,0,0,0,0,0c0,0,0-0.1,0-0.1V2.4C52,1.1,51,0,49.7,0c0,0,0,0,0,0H2.4z"/>
<path class="st1" d="M38.3,42.7H13.7V9.3h17.1v8.2h7.5V42.7z M38.2,15.5h-5.4V9.3L38.2,15.5z M33.6,7.3H11.8v37.3h28.5V14.9
	L33.6,7.3z"/>
<rect x="17" y="22.6" class="st1" width="17.6" height="2"/>
<rect x="17" y="26.8" class="st1" width="17.6" height="2"/>
<rect x="17" y="31" class="st1" width="17.6" height="2"/>
<g>
	<g>
		<path class="st2" d="M35,47.3c-4.7,0-8.5-3.8-8.5-8.5c0-4.7,3.8-8.5,8.5-8.5c4.7,0,8.5,3.8,8.5,8.5C43.5,43.5,39.7,47.3,35,47.3z"
			/>
		<path class="st0" d="M35,31c4.3,0,7.8,3.5,7.8,7.8s-3.5,7.8-7.8,7.8c-4.3,0-7.8-3.5-7.8-7.8C27.2,34.5,30.7,31,35,31L35,31
			 M35,29.6c-5.1,0-9.2,4.1-9.2,9.2S29.9,48,35,48c5.1,0,9.2-4.1,9.2-9.2C44.2,33.7,40.1,29.6,35,29.6z"/>
	</g>
	<polyline class="st0" points="36.6,37.7 36.6,34.1 31.6,38.6 36.6,43 36.6,39.4 	"/>
</g>
</svg>
